<svg width="914" height="400" fill="none" xmlns="http://www.w3.org/2000/svg"><style>#CL0 {fill: #333;}@media (prefers-color-scheme: dark) {#CL0 {fill: #CCC;}}</style><path d="M644.292 199.791c-.411-.301-.939-.451-1.586-.451-.465 0-.875.091-1.231.273-.355.173-.67.41-.943.711a4.594 4.594 0 0 0-.684 1.053 8.01 8.01 0 0 0-.451 1.23c-.109.429-.191.862-.246 1.299-.046.438-.068.852-.068 1.244V212h-1.737v-14h1.737v2.994h.054c.164-.51.369-.966.616-1.367.255-.41.546-.752.875-1.025a3.572 3.572 0 0 1 1.066-.643 3.495 3.495 0 0 1 1.23-.219c.283 0 .534.018.752.055.228.036.433.091.616.164v1.832Zm-17.268 12.537c-1.039 0-1.973-.173-2.803-.519a6.04 6.04 0 0 1-2.105-1.463 6.55 6.55 0 0 1-1.34-2.284c-.31-.884-.465-1.863-.465-2.939 0-1.167.164-2.21.492-3.131.328-.92.793-1.7 1.395-2.338a6.008 6.008 0 0 1 2.201-1.476c.857-.338 1.814-.506 2.871-.506 1.012 0 1.923.168 2.735.506a5.507 5.507 0 0 1 2.064 1.435c.565.629.998 1.395 1.299 2.297.301.902.451 1.928.451 3.076 0 1.094-.16 2.092-.479 2.994a6.653 6.653 0 0 1-1.339 2.311 5.981 5.981 0 0 1-2.133 1.504c-.839.355-1.787.533-2.844.533Zm.137-13.139c-.766 0-1.459.133-2.078.397a4.39 4.39 0 0 0-1.6 1.162c-.437.501-.775 1.121-1.012 1.859-.237.73-.355 1.559-.355 2.489 0 .875.118 1.663.355 2.365.237.702.57 1.303.998 1.805.438.501.967.888 1.586 1.162.62.264 1.313.396 2.078.396.784 0 1.477-.127 2.079-.383a4.205 4.205 0 0 0 1.531-1.134c.419-.502.734-1.112.943-1.832.219-.72.328-1.541.328-2.461 0-1.887-.419-3.327-1.258-4.321-.838-1.002-2.037-1.504-3.595-1.504Zm-8.545 12.647a4.34 4.34 0 0 1-1.969.451c-2.26 0-3.391-1.303-3.391-3.91v-8.846h-2.46V198h2.46v-3.527l1.75-.575V198h3.61v1.531h-3.61v8.573c0 .947.155 1.631.465 2.05.31.42.834.629 1.573.629.546 0 1.071-.164 1.572-.492v1.545Zm-11.977.164v-2.488h-.054c-.456.893-1.08 1.586-1.873 2.078-.784.492-1.673.738-2.666.738a5.524 5.524 0 0 1-1.832-.287 4.034 4.034 0 0 1-1.381-.807 3.756 3.756 0 0 1-.875-1.271 4.265 4.265 0 0 1-.301-1.627c0-1.267.392-2.274 1.176-3.022.783-.756 1.968-1.248 3.554-1.476l4.252-.615c0-2.689-1.043-4.034-3.131-4.034-1.631 0-3.144.597-4.539 1.791v-1.914a5.7 5.7 0 0 1 .985-.56 8.23 8.23 0 0 1 1.176-.438c.41-.127.829-.223 1.257-.287a7.734 7.734 0 0 1 1.272-.109c1.558 0 2.734.437 3.527 1.312.802.875 1.203 2.179 1.203 3.911V212h-1.75Zm-3.609-6.795c-.629.091-1.167.205-1.613.342-.447.137-.816.323-1.108.56a2.007 2.007 0 0 0-.642.862c-.137.337-.205.756-.205 1.258 0 .373.063.72.191 1.039.137.319.328.597.574.834.255.227.561.405.916.533.365.127.775.191 1.231.191.619 0 1.189-.118 1.709-.355a3.981 3.981 0 0 0 1.339-.985c.383-.419.68-.92.889-1.504a5.36 5.36 0 0 0 .328-1.9v-1.381l-3.609.506Zm-7-5.414c-.41-.301-.939-.451-1.586-.451a2.66 2.66 0 0 0-1.23.273 3.1 3.1 0 0 0-.944.711 4.558 4.558 0 0 0-.683 1.053 7.91 7.91 0 0 0-.452 1.23c-.109.429-.191.862-.246 1.299-.045.438-.068.852-.068 1.244V212h-1.736v-14h1.736v2.994h.055c.164-.51.369-.966.615-1.367.255-.41.547-.752.875-1.025a3.572 3.572 0 0 1 1.066-.643 3.497 3.497 0 0 1 1.231-.219c.282 0 .533.018.752.055.228.036.433.091.615.164v1.832Zm-20.494 5.523c.009.857.123 1.627.342 2.311.218.684.533 1.262.943 1.736.41.474.907.839 1.49 1.094.593.246 1.258.369 1.996.369 1.577 0 3.067-.551 4.471-1.654v1.723c-1.34.957-2.962 1.435-4.867 1.435-.939 0-1.791-.164-2.557-.492a5.339 5.339 0 0 1-1.955-1.422c-.538-.629-.952-1.399-1.244-2.31-.292-.912-.438-1.951-.438-3.118 0-1.048.16-2.019.479-2.912.319-.893.761-1.663 1.326-2.31a5.989 5.989 0 0 1 2.01-1.532 5.785 5.785 0 0 1 2.543-.56c.902 0 1.7.159 2.392.478a4.58 4.58 0 0 1 1.737 1.34c.474.584.834 1.295 1.08 2.133.246.839.369 1.777.369 2.816v.875h-10.117Zm8.312-1.531c-.027-1.458-.373-2.588-1.039-3.39-.665-.803-1.59-1.204-2.775-1.204a4.3 4.3 0 0 0-1.654.315c-.502.21-.944.515-1.327.916a4.925 4.925 0 0 0-.957 1.449 7.341 7.341 0 0 0-.519 1.914h8.271ZM568.727 212v-8.066c0-3.163-1.148-4.745-3.445-4.745-.611 0-1.176.123-1.695.37-.52.237-.971.569-1.354.998-.374.428-.67.938-.889 1.531a5.594 5.594 0 0 0-.314 1.9V212h-1.75v-14h1.75v2.434h.055c1.039-1.842 2.602-2.762 4.689-2.762 1.531 0 2.698.497 3.5 1.49.802.994 1.203 2.429 1.203 4.307V212h-1.75Zm-22.996-6.686c.009.857.123 1.627.342 2.311.219.684.533 1.262.943 1.736.41.474.907.839 1.49 1.094.593.246 1.258.369 1.997.369 1.576 0 3.067-.551 4.47-1.654v1.723c-1.34.957-2.962 1.435-4.867 1.435-.939 0-1.791-.164-2.557-.492a5.339 5.339 0 0 1-1.955-1.422c-.537-.629-.952-1.399-1.244-2.31-.291-.912-.437-1.951-.437-3.118 0-1.048.159-2.019.478-2.912.319-.893.761-1.663 1.326-2.31a5.999 5.999 0 0 1 2.01-1.532 5.788 5.788 0 0 1 2.543-.56c.902 0 1.7.159 2.393.478.692.31 1.271.757 1.736 1.34.474.584.834 1.295 1.08 2.133.246.839.369 1.777.369 2.816v.875h-10.117Zm8.313-1.531c-.028-1.458-.374-2.588-1.039-3.39-.666-.803-1.591-1.204-2.776-1.204-.592 0-1.144.105-1.654.315-.501.21-.944.515-1.326.916a4.886 4.886 0 0 0-.957 1.449 7.341 7.341 0 0 0-.52 1.914h8.272Zm-13.399 6.863c-2.014 1.131-4.147 1.696-6.398 1.696-1.422 0-2.698-.242-3.828-.725a8.4 8.4 0 0 1-2.885-2.037c-.793-.875-1.404-1.914-1.832-3.117-.419-1.212-.629-2.543-.629-3.992 0-.957.1-1.878.301-2.762.209-.884.51-1.714.902-2.488a9.767 9.767 0 0 1 1.463-2.106 9.164 9.164 0 0 1 1.969-1.627 9.597 9.597 0 0 1 2.461-1.052 10.78 10.78 0 0 1 2.884-.37c1.942 0 3.674.347 5.196 1.039v2.01a10.996 10.996 0 0 0-5.414-1.394c-1.194 0-2.274.218-3.241.656a7.308 7.308 0 0 0-2.474 1.805c-.675.765-1.199 1.672-1.573 2.72-.373 1.039-.565 2.17-.574 3.391-.009 1.212.146 2.333.465 3.363.328 1.021.811 1.905 1.449 2.653a6.615 6.615 0 0 0 2.366 1.75c.938.419 2.023.629 3.253.629 1.659 0 3.099-.347 4.321-1.04v-5.974h-4.457v-1.654h6.275v8.626ZM512.29 212v-8.066c0-3.163-1.149-4.745-3.446-4.745a3.9 3.9 0 0 0-1.695.37 4.04 4.04 0 0 0-1.353.998c-.374.428-.67.938-.889 1.531a5.57 5.57 0 0 0-.315 1.9V212h-1.75v-14h1.75v2.434h.055c1.039-1.842 2.602-2.762 4.69-2.762 1.531 0 2.697.497 3.5 1.49.802.994 1.203 2.429 1.203 4.307V212h-1.75Zm-19.77.328c-1.039 0-1.973-.173-2.803-.519a6.04 6.04 0 0 1-2.105-1.463 6.55 6.55 0 0 1-1.34-2.284c-.31-.884-.465-1.863-.465-2.939 0-1.167.164-2.21.492-3.131.329-.92.793-1.7 1.395-2.338a6.008 6.008 0 0 1 2.201-1.476c.857-.338 1.814-.506 2.871-.506 1.012 0 1.923.168 2.735.506a5.507 5.507 0 0 1 2.064 1.435c.565.629.998 1.395 1.299 2.297.301.902.451 1.928.451 3.076 0 1.094-.159 2.092-.478 2.994a6.671 6.671 0 0 1-1.34 2.311 5.981 5.981 0 0 1-2.133 1.504c-.839.355-1.787.533-2.844.533Zm.137-13.139c-.766 0-1.458.133-2.078.397a4.39 4.39 0 0 0-1.6 1.162c-.437.501-.775 1.121-1.012 1.859-.237.73-.355 1.559-.355 2.489 0 .875.118 1.663.355 2.365.237.702.57 1.303.998 1.805.438.501.967.888 1.586 1.162.62.264 1.313.396 2.079.396.783 0 1.476-.127 2.078-.383a4.205 4.205 0 0 0 1.531-1.134c.419-.502.734-1.112.943-1.832.219-.72.328-1.541.328-2.461 0-1.887-.419-3.327-1.257-4.321-.839-1.002-2.038-1.504-3.596-1.504Zm-11.266-4.73c-.337 0-.629-.119-.875-.355a1.2 1.2 0 0 1-.369-.903c0-.355.123-.647.369-.875.246-.237.538-.355.875-.355.173 0 .337.032.492.095.155.055.288.137.397.246.118.11.21.242.273.397.073.146.11.31.11.492a1.276 1.276 0 0 1-.369.903 1.384 1.384 0 0 1-.411.259 1.206 1.206 0 0 1-.492.096ZM480.53 212v-14h1.75v14h-1.75Zm-2.899-.164a4.332 4.332 0 0 1-1.968.451c-2.261 0-3.391-1.303-3.391-3.91v-8.846h-2.461V198h2.461v-3.527l1.75-.575V198h3.609v1.531h-3.609v8.573c0 .947.155 1.631.465 2.05.31.42.834.629 1.572.629.547 0 1.071-.164 1.572-.492v1.545Zm-19.564-6.522c.009.857.123 1.627.342 2.311.219.684.533 1.262.943 1.736.41.474.907.839 1.49 1.094.593.246 1.258.369 1.997.369 1.576 0 3.067-.551 4.47-1.654v1.723c-1.34.957-2.962 1.435-4.867 1.435-.939 0-1.791-.164-2.557-.492a5.339 5.339 0 0 1-1.955-1.422c-.537-.629-.952-1.399-1.244-2.31-.292-.912-.437-1.951-.437-3.118 0-1.048.159-2.019.478-2.912.319-.893.761-1.663 1.326-2.31a5.989 5.989 0 0 1 2.01-1.532 5.788 5.788 0 0 1 2.543-.56c.902 0 1.7.159 2.393.478.692.31 1.271.757 1.736 1.34.474.584.834 1.295 1.08 2.133.246.839.369 1.777.369 2.816v.875h-10.117Zm8.313-1.531c-.028-1.458-.374-2.588-1.04-3.39-.665-.803-1.59-1.204-2.775-1.204-.592 0-1.144.105-1.654.315-.502.21-.944.515-1.326.916a4.886 4.886 0 0 0-.957 1.449 7.302 7.302 0 0 0-.52 1.914h8.272ZM450.971 212v-20.727h1.75V212h-1.75Zm-14.328-2.256v8.695h-1.75V198h1.75v2.68h.055c.519-.976 1.212-1.718 2.078-2.229.875-.519 1.859-.779 2.953-.779.893 0 1.691.164 2.393.492a4.828 4.828 0 0 1 1.791 1.367c.492.593.866 1.313 1.121 2.16.264.848.396 1.801.396 2.858 0 1.157-.146 2.215-.437 3.172-.292.948-.711 1.763-1.258 2.447a5.766 5.766 0 0 1-1.996 1.6c-.775.373-1.65.56-2.625.56-1.969 0-3.441-.861-4.416-2.584h-.055Zm0-3.568c0 .638.105 1.239.315 1.804a4.85 4.85 0 0 0 .902 1.477c.383.419.843.752 1.381.998a4.348 4.348 0 0 0 1.805.369c.701 0 1.335-.146 1.9-.437a4.148 4.148 0 0 0 1.435-1.272c.402-.547.707-1.207.916-1.982.219-.775.329-1.641.329-2.598 0-.82-.101-1.558-.301-2.215-.201-.665-.488-1.23-.861-1.695a3.633 3.633 0 0 0-1.34-1.066c-.52-.247-1.103-.37-1.75-.37-.73 0-1.386.137-1.969.411a4.367 4.367 0 0 0-1.49 1.093 4.875 4.875 0 0 0-.944 1.641 5.934 5.934 0 0 0-.328 1.982v1.86ZM428.919 212v-8.23c0-.839-.064-1.545-.192-2.12-.127-.583-.328-1.057-.601-1.421a2.261 2.261 0 0 0-1.026-.793c-.41-.165-.902-.247-1.476-.247-.511 0-.994.123-1.45.37a3.797 3.797 0 0 0-1.203.998 4.956 4.956 0 0 0-.806 1.49 5.827 5.827 0 0 0-.287 1.859V212h-1.75v-8.408c0-2.935-1.126-4.403-3.377-4.403-.52 0-1.003.119-1.45.356a3.601 3.601 0 0 0-1.175.971c-.329.419-.588.925-.78 1.517a6.505 6.505 0 0 0-.273 1.942V212h-1.75v-14h1.75v2.27h.055c.984-1.732 2.419-2.598 4.306-2.598.492 0 .957.077 1.395.232.437.146.829.356 1.176.629.346.265.642.584.888.957.255.374.447.784.574 1.231.493-.994 1.131-1.75 1.914-2.27.793-.519 1.687-.779 2.68-.779 3.072 0 4.608 1.896 4.608 5.687V212h-1.75Zm-27.918.328c-1.039 0-1.974-.173-2.803-.519a6.053 6.053 0 0 1-2.106-1.463 6.532 6.532 0 0 1-1.339-2.284c-.31-.884-.465-1.863-.465-2.939 0-1.167.164-2.21.492-3.131.328-.92.793-1.7 1.394-2.338a6.012 6.012 0 0 1 2.202-1.476c.856-.338 1.813-.506 2.871-.506 1.011 0 1.923.168 2.734.506a5.519 5.519 0 0 1 2.065 1.435c.565.629.998 1.395 1.298 2.297.301.902.452 1.928.452 3.076 0 1.094-.16 2.092-.479 2.994a6.655 6.655 0 0 1-1.34 2.311 5.964 5.964 0 0 1-2.133 1.504c-.838.355-1.786.533-2.843.533Zm.136-13.139c-.765 0-1.458.133-2.078.397a4.379 4.379 0 0 0-1.599 1.162c-.438.501-.775 1.121-1.012 1.859-.237.73-.356 1.559-.356 2.489 0 .875.119 1.663.356 2.365.237.702.57 1.303.998 1.805.437.501.966.888 1.586 1.162.62.264 1.312.396 2.078.396.784 0 1.477-.127 2.078-.383a4.196 4.196 0 0 0 1.531-1.134c.42-.502.734-1.112.944-1.832.218-.72.328-1.541.328-2.461 0-1.887-.419-3.327-1.258-4.321-.839-1.002-2.037-1.504-3.596-1.504Zm-9.761 12.086c-1.513.711-3.241 1.067-5.182 1.067-1.385 0-2.643-.242-3.773-.725a8.543 8.543 0 0 1-2.899-2.037c-.793-.866-1.408-1.896-1.846-3.09-.428-1.194-.642-2.497-.642-3.91 0-1.486.228-2.866.683-4.142.465-1.286 1.126-2.398 1.983-3.336a9.11 9.11 0 0 1 3.103-2.229c1.222-.538 2.589-.807 4.102-.807 1.668 0 3.158.256 4.471.766v1.941a9.932 9.932 0 0 0-4.498-1.052c-1.267 0-2.393.218-3.377.656a6.96 6.96 0 0 0-2.489 1.832c-.674.775-1.189 1.695-1.545 2.762-.355 1.057-.533 2.215-.533 3.472 0 1.131.16 2.197.479 3.2a7.754 7.754 0 0 0 1.408 2.611 6.781 6.781 0 0 0 2.338 1.777c.93.438 2.01.657 3.24.657 1.887 0 3.546-.397 4.977-1.19v1.777Zm-25.963.725h-1.819v-19.605h1.819V212Zm-14.834 0v-19.605h1.818v17.951h7.875V212h-9.693Zm-4.184-.725c-1.513.711-3.24 1.067-5.181 1.067-1.386 0-2.644-.242-3.774-.725a8.548 8.548 0 0 1-2.898-2.037c-.793-.866-1.409-1.896-1.846-3.09-.428-1.194-.643-2.497-.643-3.91 0-1.486.228-2.866.684-4.142.465-1.286 1.126-2.398 1.982-3.336a9.113 9.113 0 0 1 3.104-2.229c1.221-.538 2.588-.807 4.101-.807 1.668 0 3.159.256 4.471.766v1.941a9.932 9.932 0 0 0-4.498-1.052c-1.267 0-2.392.218-3.377.656a6.955 6.955 0 0 0-2.488 1.832c-.675.775-1.19 1.695-1.545 2.762-.356 1.057-.533 2.215-.533 3.472 0 1.131.159 2.197.478 3.2a7.771 7.771 0 0 0 1.408 2.611 6.79 6.79 0 0 0 2.338 1.777c.93.438 2.01.657 3.241.657 1.886 0 3.545-.397 4.976-1.19v1.777Zm-37.816-.027v-4.375a8.52 8.52 0 0 0 2.584 1.504 8.407 8.407 0 0 0 2.816.492 6.17 6.17 0 0 0 1.449-.15c.42-.101.766-.237 1.039-.41.283-.183.493-.392.629-.629.137-.246.205-.511.205-.793a1.7 1.7 0 0 0-.328-1.026 3.502 3.502 0 0 0-.902-.834 9.035 9.035 0 0 0-1.34-.738 47.196 47.196 0 0 0-1.682-.725c-1.531-.638-2.675-1.417-3.431-2.337-.748-.921-1.121-2.033-1.121-3.336 0-1.021.205-1.896.615-2.625a5.223 5.223 0 0 1 1.668-1.819c.711-.474 1.531-.82 2.461-1.039.93-.228 1.914-.342 2.953-.342 1.021 0 1.923.064 2.707.192.793.118 1.522.305 2.188.56v4.088a6.494 6.494 0 0 0-1.081-.601 7.635 7.635 0 0 0-1.189-.424 8.425 8.425 0 0 0-1.23-.26 8.473 8.473 0 0 0-1.149-.082c-.501 0-.957.05-1.367.15-.41.092-.757.224-1.039.397a1.973 1.973 0 0 0-.656.629 1.441 1.441 0 0 0-.233.806c0 .329.087.625.26.889.173.255.419.501.738.738a8.76 8.76 0 0 0 1.162.684c.456.219.971.447 1.545.684.784.328 1.486.679 2.106 1.052.629.365 1.166.78 1.613 1.244.447.465.788.999 1.025 1.6.237.593.356 1.285.356 2.078 0 1.094-.21 2.015-.629 2.762a5.07 5.07 0 0 1-1.682 1.805c-.711.455-1.54.783-2.488.984a14.21 14.21 0 0 1-2.98.301 16.67 16.67 0 0 1-3.077-.274c-.966-.182-1.804-.455-2.515-.82Zm-19.183.752v-19.605h6.946c6.963 0 10.445 3.185 10.445 9.556 0 3.054-.952 5.492-2.857 7.315-1.896 1.823-4.425 2.734-7.588 2.734h-6.946Zm4.416-16.01v12.428H296c1.914 0 3.413-.574 4.498-1.723 1.094-1.148 1.641-2.711 1.641-4.689 0-1.869-.543-3.336-1.627-4.402-1.076-1.076-2.589-1.614-4.539-1.614h-2.161ZM288.111 212h-5.072l-3.049-5.045a16.638 16.638 0 0 0-.657-1.025 5.037 5.037 0 0 0-.642-.766 2.217 2.217 0 0 0-.67-.492 1.601 1.601 0 0 0-.752-.178h-1.189V212h-4.416v-19.605h7c4.757 0 7.136 1.777 7.136 5.332 0 .683-.105 1.317-.314 1.9a5.294 5.294 0 0 1-.889 1.559 5.616 5.616 0 0 1-1.394 1.203 7.079 7.079 0 0 1-1.805.793v.054c.292.091.574.242.848.452.273.2.537.437.793.71.255.274.496.57.724.889.237.31.451.615.643.916l3.705 5.797Zm-12.031-16.297v5.455h1.914c.948 0 1.709-.273 2.283-.82.583-.556.875-1.244.875-2.065 0-1.713-1.026-2.57-3.076-2.57h-1.996Z" id="CL0"/></svg>